<svg xmlns="http://www.w3.org/2000/svg" viewBox="0 0 1024 1024">
  <path fill="#070707" fill-rule="evenodd" d="M449.5 86.345c-26.927 9.112-36.648 13.13-40.36 16.68-4.699 4.496-5.14 7.277-5.14 32.443V159h-2.912c-6.856 0-18.877 3.18-26.735 7.073-10.227 5.066-19.451 14.316-24.491 24.56l-3.362 6.833.062 120.517c.069 133.541 2.208 272.818 5.399 351.626.797 19.68 1.178 22.951 3.466 29.769 3.181 9.477 6.222 14.373 12.89 20.757 7.995 7.654 22.704 13.865 32.834 13.865 4.336 0 4.671.38 5.442 6.167l.577 4.333-6.252 3c-9.453 4.535-10.352 6.262-10.754 20.655-.37 13.239.292 15.992 4.909 20.415l2.927 2.804.006 28.063c.003 15.966.444 29.644 1.024 31.731 1.092 3.933 6.098 8.972 11.446 11.522 3.189 1.521 3.253 1.686 3.832 9.877.701 9.94 1.989 12.717 8.698 18.749 5.876 5.283 16.041 9.594 29.653 12.576 17.557 3.846 27.005 4.61 56.341 4.555 25.02-.047 30.146-.335 41.983-2.356 26.789-4.574 43.577-12.46 49.031-23.03.692-1.341 1.49-6.291 1.772-11l.514-8.561 4.577-3c2.518-1.65 5.601-4.529 6.851-6.398 2.236-3.344 2.272-3.87 2.272-33.22V791.06l2.962-2.19c4.925-3.641 6.038-7.334 6.038-20.037 0-14.776-1.078-17.047-10.308-21.722-6.469-3.277-6.692-3.515-6.692-7.151 0-3.756.015-3.769 9.328-8.299 14.434-7.022 23.915-18.265 29.23-34.661 1.681-5.186 1.832-19.605 2.635-252.809.593-171.992.533-248.495-.197-251.204-2.659-9.875-12.764-14.708-40.496-19.369l-7-1.176-.531-26.971c-.674-34.264-.434-33.656-19.168-48.581-10.987-8.753-9.807-8.362-37.301-12.349-26.484-3.84-42.877-5.61-57-6.154l-13-.501zm29.5 9.311c-1.375.211-3.962.62-5.75.909l-3.25.526V146l3.25-.011c1.788-.006 4.938-.29 7-.631l3.75-.62v-24.869c0-19.301-.28-24.839-1.25-24.733-.687.075-2.375.309-3.75.52m18 24.706V145l8.25.034c7.688.031 21.473 1.045 35 2.574l5.75.65v-47.035l-3.25-.59c-5.274-.957-27.548-3.505-37-4.234l-8.75-.674zm-54.622-14.466c-7.217 2.655-13.697 5.183-14.401 5.618-1.012.626-1.135 5.509-.587 23.347.382 12.406.862 22.725 1.068 22.931.207.206 6.825-1.836 14.709-4.539l14.333-4.913.268-23.67c.211-18.605-.003-23.663-1-23.635-.697.019-7.173 2.207-14.39 4.861M559 127.928v23.928l5.538 2.072c3.045 1.14 5.745 2.072 6 2.072.254 0 .462-10.556.462-23.458v-23.458l-4.338-2.542c-8.002-4.689-7.662-5.639-7.662 21.386m24 12.905c0 13.12.382 22.167.937 22.167.874 0 .324-42.929-.563-43.917-.206-.229-.374 9.559-.374 21.75M481.603 159.52c-4.893.792-9.13 1.674-9.416 1.96s3.308.52 7.988.52c10.488 0 47.802 2.564 65.286 4.487 7.128.784 13.137 1.248 13.353 1.033.509-.51-14.325-5.01-23.314-7.073-9.96-2.285-42.094-2.838-53.897-.927m-83.819 17.326c-3.994.389-7.349 1.287-8.276 2.216-1.399 1.4-1.557 16.756-1.537 149 .013 81.091.321 155.253.685 164.805l.663 17.366 8.59-.644c70.666-5.295 167.147-4.238 218.21 2.391 4.06.527 8.348.972 9.529.989l2.148.031.604-68.75c1.735-197.528 1.832-246.265.493-247.879-1.841-2.218-4.8-3.219-17.607-5.957-22.844-4.883-53.413-8.859-92.286-12.003-20.612-1.667-108.517-2.802-121.216-1.565m-31.688 20.019c-7.165 10.062-6.633 17.494 2.515 35.135l3.889 7.5.292-12c.287-11.802-1.875-30.983-3.699-32.807-.466-.466-1.814.511-2.997 2.172m127.152 13.993c-8.737 3.055-12.255 7.609-12.238 15.842.011 5.495 2.535 11.475 10.238 24.26 14.62 24.263 17.01 28.04 17.743 28.04 1.173 0 2.379-31.899 1.644-43.5-1.043-16.475-4.471-25.715-9.734-26.239-1.321-.132-4.765.587-7.653 1.597m28.041-1.108c-.666.451-2.169 2.985-3.339 5.631-3.367 7.612-4.373 22.485-3.036 44.907.626 10.504 1.298 19.257 1.493 19.452.531.531 15.955-25.425 21.881-36.821 4.599-8.847 5.176-10.646 5.193-16.186.023-7.451-1.76-10.403-8.538-14.137-4.965-2.736-11.733-4.146-13.654-2.846m-57.952 18.764c-7.315 4.385-10.359 14.423-6.707 22.118 2.57 5.416 9.544 10.594 27.856 20.681 9.358 5.155 17.844 9.67 18.858 10.035 2.33.836-1.136-5.601-15.918-29.561-10.875-17.629-16.829-25.794-18.796-25.778-.622.006-3.003 1.133-5.293 2.505m88.328 2.619c-5.728 6.548-31.41 49.455-30.279 50.587.424.423 20.077-9.982 31.927-16.903 14.068-8.216 18.661-15.177 16.54-25.065-1.219-5.685-6.802-12.127-11.246-12.976-2.251-.431-3.367.27-6.942 4.357M359.664 248.75c.325 6.463.934 12.128 1.354 12.59.419.462 2.116-1.128 3.771-3.533l3.008-4.373-2.169-4.967C362.972 242.385 360.1 237 359.511 237c-.241 0-.172 5.287.153 11.75m87.739 10.757c-2.239 3.417-1.536 13.465 1.206 17.256 3.651 5.045 11.578 8.033 24.391 9.191 13.883 1.255 29 1.362 29 .205 0-.463-5.288-3.704-11.75-7.203s-18.011-9.871-25.664-14.159S450.306 257 449.859 257s-1.552 1.128-2.456 2.507m125.097-1.148c-2.578 1.81-28.276 15.905-40.25 22.076-5.087 2.622-9.25 5.172-9.25 5.666 0 1.179 14.437 1.12 29.5-.121 9.85-.811 12.978-1.48 17.455-3.734 7.133-3.591 9.323-6.724 9.772-13.983.548-8.857-2.591-13.159-7.227-9.904m-203.778 10.776c-5.833 4.351-5.556-3.184-4.733 128.654.416 66.71.961 121.494 1.211 121.744s2.398-1.209 4.774-3.242l4.319-3.698-.635-49.046c-.35-26.976-.641-82.234-.647-122.797-.006-40.562-.348-73.736-.761-73.718-.413.017-2 .964-3.528 2.103m90.789 20.7c-.883.851 1.878 6.164 4.516 8.691 4.263 4.084 11.275 4.481 20.779 1.176 7.504-2.61 17.735-8.499 16.644-9.581-.634-.628-41.297-.906-41.939-.286M526 292.178c1.375 1.161 5.863 3.719 9.973 5.683 12.984 6.207 23.457 5.401 28.067-2.16 3.541-5.805 3.886-5.704-19.29-5.668l-21.25.034zm-86.333 18.489c-.367.366-.667 5.991-.667 12.5V335h8v-10.115l4.25.308 4.25.307.5 5c.478 4.778.633 5 3.5 5h3l.28-12.75.28-12.75h-3.53c-3.181 0-3.531.272-3.544 2.75-.03 6.034-.958 7.379-4.866 7.053-3.56-.298-3.625-.382-3.925-5.053-.297-4.639-.381-4.75-3.583-4.75-1.803 0-3.579.3-3.945.667M467 319.453c0 10.434 1.008 13.774 4.657 15.437 3.187 1.452 10.889 1.422 13.659-.053 4.05-2.158 4.619-3.941 4.652-14.587L490 310h-7v8.929c0 9.459-1.09 12.071-5.036 12.071-2.956 0-3.964-3.162-3.964-12.434V310h-7zm33.677-8.74c-.684 1.107-8.241 20.204-9.117 23.037-.617 1.998-.348 2.25 2.394 2.25 2.324 0 3.371-.619 4.228-2.5.988-2.168 1.785-2.5 6.003-2.5 4.269 0 4.981.306 5.815 2.5.766 2.014 1.636 2.5 4.475 2.5 1.939 0 3.524-.337 3.523-.75s-2.172-6.15-4.825-12.75l-4.823-12-3.582-.305c-1.97-.167-3.811.066-4.091.518m14.954.075c-.268.434.862 5.046 2.511 10.25 4.856 15.327 4.65 14.962 8.451 14.962 3.228 0 3.41-.212 4.948-5.75 2.517-9.066 2.619-9.115 4.441-2.14.95 3.635 2.044 7.123 2.431 7.75 1.128 1.824 6.278 1.379 7.069-.61 2.037-5.12 7.175-23.26 6.718-23.717-.293-.293-1.776-.533-3.296-.533-2.507 0-2.912.53-4.39 5.75-.895 3.163-1.887 6.633-2.205 7.711-.396 1.344-1.157-.229-2.417-5-1.012-3.828-1.851-7.298-1.866-7.711-.014-.413-1.588-.75-3.498-.75-3.377 0-3.516.158-5.056 5.75-2.759 10.017-2.874 10.07-4.898 2.267-1.501-5.787-2.329-7.354-4.282-8.096-2.965-1.127-4.028-1.157-4.661-.133m39.589 12.962.28 12.75h9c8.572 0 9.015-.107 9.32-2.25.301-2.121-.028-2.25-5.75-2.25-5.785 0-6.07-.116-6.07-2.466 0-2.206.53-2.535 5.052-3.135 4.404-.584 5.013-.941 4.75-2.785-.251-1.755-1.096-2.165-4.986-2.416-3.852-.249-4.659-.632-4.544-2.161.111-1.466 1.256-1.997 5.434-2.519 4.757-.595 5.294-.908 5.294-3.09 0-2.391-.136-2.428-9.03-2.428h-9.03zm22.239-11.503c-.291.757-.4 6.523-.244 12.814l.285 11.439 3.78.312 3.781.312-.281-12.812-.28-12.812-3.257-.314c-2.077-.2-3.448.184-3.784 1.061m-74.389 9.068c-1.552 4.084-1.36 4.685 1.497 4.685 2.2 0 2.469-.322 1.879-2.25-1.491-4.876-2.242-5.417-3.376-2.435m-42.307 30.768-3.083 3.083.655 58.612c.36 32.236 1.042 58.999 1.517 59.474.474.474 3.289.724 6.255.555l5.393-.307.258-56.389.259-56.389 24.741.648c13.608.357 31.993.927 40.856 1.267l16.114.618.696 54.123c.383 29.767.917 54.885 1.187 55.818.554 1.919 7.848 3.428 11.29 2.335l2.099-.666-.032-59.182c-.034-62.781.103-60.987-4.825-63.612-2.208-1.176-52.559-2.9-88.47-3.029L463.846 349zm45.464 94.033c-14.159 7.009-16.416 25.283-4.454 36.067 7.147 6.444 16.415 7.568 25.293 3.067 16.956-8.596 15.073-34.072-2.965-40.112-5.411-1.811-13.086-1.391-17.874.978M438.5 520.024c-19.394.945-48.852 2.995-49.287 3.429-.53.531 1.851 125.749 2.702 142.085.742 14.227 1.122 16.602 3.371 21.04 4.578 9.034 14.415 16.292 24.214 17.865 2.468.397 12.044-.503 25-2.348 11.55-1.645 26.762-3.465 33.804-4.043 16.286-1.338 52.886-1.356 67.196-.034 10.526.973 35.573 4.941 44 6.971 13.806 3.325 28.505-3.49 35.297-16.366l2.703-5.123v-157l-19.5-2.176c-10.725-1.196-26.25-2.709-34.5-3.362-18.205-1.441-111.402-2.089-135-.938m-67.243 8.483c-3.792 1.979-6.115 4.57-6.77 7.551-.875 3.985 1.723 13.322 6.436 23.123l3.999 8.319-.594-20c-.327-11-.646-20.037-.711-20.082-.064-.045-1.126.444-2.36 1.089M464 556.879c-14.896.612-17.049.933-22.148 3.297-6.922 3.211-12.665 8.794-15.806 15.366-3.344 7-3.405 18.797-.134 26.185 2.672 6.035 9.32 12.603 15.541 15.355 7.427 3.285 17.448 3.822 77.047 4.124l58 .294 5.546-2.601c7.654-3.59 12.381-8.031 15.664-14.717 2.368-4.823 2.783-6.891 2.741-13.682-.104-16.909-9.892-28.066-28.139-32.075-7.812-1.716-79.302-2.736-108.312-1.546M362.675 577.75c.331 6.462.809 11.975 1.061 12.25.629.685 6.264-6.141 6.264-7.587 0-1.462-6.776-16.413-7.438-16.413-.269 0-.218 5.288.113 11.75m95.825-8.832c-7.521.438-10.867 1.091-13.497 2.636-13.9 8.166-10.272 29.895 5.896 35.308 2.393.801 21.049 1.131 63 1.116 55.662-.02 59.868-.143 63.642-1.858 7.823-3.553 12.291-12.031 11.063-20.989-1.268-9.252-6.82-14.312-17.628-16.065-6.793-1.102-94.118-1.217-112.476-.148m-6.75 5.752c-1.556.424-1.75 1.964-1.75 13.903V602h8v-9.885l4.25-.308c3.778-.273 4.285-.606 4.561-2.997.29-2.512.026-2.71-4-3-3.559-.256-4.365-.693-4.623-2.503-.279-1.962.193-2.225 4.5-2.5 4.612-.294 4.812-.432 4.812-3.307v-3l-7-.154c-3.85-.084-7.788.061-8.75.324M471 588v14h3.5c3.25 0 3.511-.232 3.658-3.25.086-1.788.136-3.812.111-4.5-.108-2.903 2.922-.911 4.943 3.25 2.088 4.297 2.381 4.5 6.487 4.5 2.366 0 4.301-.247 4.301-.548s-1.569-3.001-3.488-6c-1.918-2.999-3.02-5.452-2.449-5.452.572 0 1.697-1.575 2.501-3.5 1.274-3.048 1.278-3.943.029-6.931-1.66-3.972-5.738-5.554-14.343-5.563L471 574zm30.03-12.721c-6.765 3.423-9.218 14.14-4.767 20.823 6.806 10.218 21.495 8.013 24.617-3.694 1.785-6.692-.857-14.311-5.86-16.898-3.532-1.826-10.606-1.943-13.99-.231M525 588v14h6.912l.294-7.21.294-7.21 5.302 6.755c5.493 6.998 9.824 9.838 11.366 7.454.458-.709.72-7.139.583-14.289l-.251-13-3.207-.31-3.207-.31-.293 7.739-.293 7.739-5.774-7.679c-4.931-6.559-6.208-7.679-8.75-7.679H525zm27.384-12.558c-1.243 3.239.065 5.052 3.874 5.368l3.742.311v10.38c0 6.007.432 10.648 1.024 11.014.564.348 2.364.339 4-.02l2.976-.654V581h4c3.905 0 4-.083 4-3.5V574h-11.531c-9.12 0-11.647.301-12.085 1.442m-73.717 5.225c-.367.366-.667 1.716-.667 3 0 1.83.546 2.333 2.531 2.333 1.393 0 2.793-.681 3.112-1.513 1.037-2.701-2.998-5.798-4.976-3.82m24.89 1.556c-3.622 5.17-.887 13.777 4.377 13.777 1.552 0 3.406-.705 4.122-1.567 1.746-2.105 1.794-10.7.072-12.778-2.001-2.413-6.702-2.102-8.571.568M370.75 601.708l-3.75 1.506.057 14.643c.116 29.84 1.791 67.555 3.227 72.643 3.648 12.927 12.479 22.119 23.876 24.855 2.354.564 2.034-.014-2.774-5.018-6.858-7.138-12.021-17.499-13.372-26.837-.557-3.85-1.419-24.019-1.916-44.819-.497-20.801-1.059-37.968-1.251-38.149-.191-.182-2.034.348-4.097 1.176M492.5 713.651c-7.301.804-22.924 3.226-28.25 4.378l-5.25 1.137v15.109l8.75-.716c26.224-2.147 33.172-2.514 48.063-2.535 8.972-.013 22.697.47 30.5 1.074s15.312 1.167 16.687 1.25c2.449.149 2.5.006 2.5-7.049 0-3.961-.451-7.651-1.002-8.202-2.539-2.537-19.335-4.312-43.498-4.597-13.475-.159-26.3-.091-28.5.151m-53.75 10.631-6.75 2.016v10.978l6.717-.688c3.694-.378 6.866-.837 7.048-1.02.183-.182.197-3.25.033-6.816l-.298-6.485zM578 728.025c0 6.719.339 7.042 8.75 8.342l4.25.657v-10.756l-5.853-2.134c-3.219-1.174-6.144-2.134-6.5-2.134s-.647 2.711-.647 6.025m-93 20.943c-25.345 1.325-57.669 5.442-71.084 9.055L410 759.077v12.15l2.75-.502c44.568-8.138 56.832-9.234 102.75-9.183 30.702.034 40.401.38 50.5 1.802 11.3 1.592 33.842 5.859 38.25 7.242 1.543.484 1.75-.216 1.75-5.907v-6.455l-8.75-2.092c-11.745-2.807-18.317-3.876-34.816-5.662-16.981-1.838-56.384-2.603-77.434-1.502m2.25 26.694c-.963.389-1.25 7.8-1.25 32.305v31.8l2.25.633c7.878 2.215 59.8 1.437 66.129-.992 1.447-.555 1.621-3.981 1.621-31.862v-31.24l-11.25-.649c-12.98-.748-55.643-.744-57.5.005m-27.644 2.167c-.282.456-.237 14.181.1 30.5l.612 29.671H472v-61h-5.941c-3.268 0-6.171.373-6.453.829M570 807.875v30.875l3.125.625c8.097 1.619 7.478 3.169 8.216-20.536.362-11.639.659-25.343.659-30.453v-9.292l-3.75-1.041c-2.062-.573-4.763-1.044-6-1.047L570 777zm-128.5-29.381c-.55.185-5.387 1.092-10.75 2.014l-9.75 1.677v62.46l12.25-2.58 12.25-2.58.264-30.742c.248-28.833.155-30.738-1.5-30.664-.97.043-2.214.23-2.764.415m152.736 34.243c.244 28.356.4 30.762 2.014 31.073 1.636.315 1.75-1.681 1.75-30.737 0-30.481-.038-31.073-2.014-31.073-1.982 0-2.011.506-1.75 30.737m-125.568 42.804c-14.142 1.231-33.099 3.989-34.848 5.07-.451.279-.82 2.923-.82 5.876v5.369l5.25 1.939c13.468 4.975 29.55 7.091 59.862 7.879 34.618.899 60.689-1.75 78.066-7.932l6.322-2.249.3-5.746c.165-3.161-.06-5.747-.5-5.748-.44 0-4.077-.684-8.083-1.52-20.321-4.24-73.575-5.722-105.549-2.938"/>
</svg>
